<?xml version="1.0" encoding="UTF-8"?>
<svg width="319px" height="61px" viewBox="0 0 319 61" version="1.1" xmlns="http://www.w3.org/2000/svg" xmlns:xlink="http://www.w3.org/1999/xlink">
    <!-- Generator: sketchtool 51.3 (57544) - http://www.bohemiancoding.com/sketch -->
    <title>FB6656FA-1C80-4CEF-AF79-7CE6265CFCCF</title>
    <desc>Created with sketchtool.</desc>
    <defs></defs>
    <g id="Desktop" stroke="none" stroke-width="1" fill="none" fill-rule="evenodd" opacity="0.900000036">
        <g id="Desktop---Homepage" transform="translate(-250.000000, -75.000000)">
            <g id="Elements-/-Header-Logged-Out">
                <g id="Header-Logged-Out">
                    <g id="Logo" transform="translate(250.000000, 75.000000)">
                        <g>
                            <path d="M308.314998,55.8519012 L311.399413,47.9331975 L314.504796,55.8519012 L308.314998,55.8519012 Z M312.536131,46.063284 L310.283662,46.063284 L304.400134,60.7356667 L306.478127,60.7356667 L307.768354,57.4574815 L315.030472,57.4574815 L316.3207,60.7356667 L318.398692,60.7356667 L312.536131,46.063284 Z M296.062702,60.7356667 L297.877108,60.7356667 L297.877108,46.063284 L296.062702,46.063284 L296.062702,60.7356667 Z M282.231131,59.1074938 L289.011754,59.1074938 L289.011754,60.7356667 L280.415977,60.7356667 L280.415977,46.063284 L282.231131,46.063284 L282.231131,59.1074938 Z M264.046634,55.8519012 L267.131049,47.9331975 L270.236432,55.8519012 L264.046634,55.8519012 Z M266.015298,46.063284 L260.13177,60.7356667 L262.209763,60.7356667 L263.499991,57.4574815 L270.762108,57.4574815 L272.052336,60.7356667 L274.130329,60.7356667 L268.268516,46.063284 L266.015298,46.063284 Z M245.512434,53.3004444 L245.512434,47.6914568 L249.339685,47.6914568 C251.067977,47.6914568 252.270592,48.8128025 252.270592,50.4846543 C252.270592,52.1346667 251.067977,53.3004444 249.339685,53.3004444 L245.512434,53.3004444 Z M254.152392,50.4846543 C254.152392,47.7795679 252.22716,46.063284 249.559092,46.063284 L243.697279,46.063284 L243.697279,60.7356667 L245.512434,60.7356667 L245.512434,54.9060247 L248.44334,54.9060247 L252.139547,60.7356667 L254.282688,60.7356667 L250.346108,54.7523951 C252.336488,54.5761728 254.152392,53.1242222 254.152392,50.4846543 Z M225.600394,46.063284 L236.668047,46.063284 L236.668047,47.6914568 L232.031315,47.6914568 L232.031315,60.7356667 L230.215411,60.7356667 L230.215411,47.6914568 L225.600394,47.6914568 L225.600394,46.063284 Z M219.271315,56.6885802 C219.271315,58.7994815 217.828326,61 213.890998,61 C211.374941,61 209.494638,60.0315309 208.292023,58.6676914 L209.38531,57.2594198 C210.325836,58.3604321 211.900617,59.3718272 213.956894,59.3718272 C216.559815,59.3718272 217.391012,57.9643086 217.391012,56.8203704 C217.391012,53.0361111 208.750305,55.1485185 208.750305,49.9138148 C208.750305,47.4933951 210.894195,45.8222963 213.781669,45.8222963 C215.990707,45.8222963 217.718249,46.5919506 218.944077,47.8895185 L217.849293,49.2307654 C216.756007,47.9994691 215.225406,47.4708025 213.62816,47.4708025 C211.900617,47.4708025 210.631357,48.4181852 210.631357,49.8038642 C210.631357,53.1023827 219.271315,51.2113827 219.271315,56.6885802 Z M199.292629,46.063284 L201.130249,46.063284 L201.130249,55.0167284 C201.130249,58.6676914 199.117404,61 195.159108,61 C191.221779,61 189.209683,58.6450988 189.209683,55.0385679 L189.209683,46.063284 L191.046554,46.063284 L191.046554,54.9948889 C191.046554,57.6773827 192.468575,59.3718272 195.159108,59.3718272 C197.848892,59.3718272 199.292629,57.6773827 199.292629,54.9948889 L199.292629,46.063284 Z M172.599218,55.8519012 L175.683634,47.9331975 L178.789016,55.8519012 L172.599218,55.8519012 Z M174.567883,46.063284 L168.684354,60.7356667 L170.762347,60.7356667 L172.052575,57.4574815 L179.314692,57.4574815 L180.60492,60.7356667 L182.682913,60.7356667 L176.820352,46.063284 L174.567883,46.063284 Z" id="Fill-1" fill="#515251"></path>
                            <path d="M32.6855188,13.7046667 L27.2834859,13.7046667 C26.5825845,13.7046667 26.283054,13.9561975 26.1325399,14.5601728 L25.8330094,16.1702716 C25.6824953,16.7727407 25.9827746,16.9745679 26.5825845,16.9745679 L29.1345845,16.9745679 L26.921054,27.5396173 C25.0647136,33.3722716 21.6642934,39.859358 16.2742418,40.8737654 C14.9832653,41.0951728 13.8652676,41.1358395 12.9674249,40.9189506 C12.3391596,40.7683333 11.716885,40.4143827 11.4210986,40.0581728 L11.4218474,40.0574198 C10.0455047,38.5648025 10.1256291,35.2226049 12.2844953,28.8688148 C13.4399343,25.4678765 13.2632113,27.110358 9.37156103,22.6430494 C2.78114085,15.0805556 0.1595,3.15166667 11.8876174,6.73334568 C17.1945493,8.35474074 21.2419554,10.9084568 23.5378568,12.4236667 C23.9302418,12.6834815 23.9571995,12.6029012 23.6254695,12.3024198 C21.5766808,10.4422963 18.4877723,7.95937037 11.8134836,4.96133333 C8.43028638,3.44235802 5.76146948,2.73144444 3.82350704,2.73144444 C-0.319,2.72993827 -1.12548592,5.97950617 1.55156808,11.5410494 C7.23815493,23.3584815 11.996946,23.3132963 10.3203239,28.2927037 C7.92407981,35.4184074 7.39840376,39.8495679 10.6415704,41.123037 L10.6415704,41.1237901 C11.2690869,41.3692963 12.0388803,41.4950617 12.9621831,41.5033457 C13.5589977,41.5199136 14.9578052,41.3941481 16.2023545,41.1524074 C19.739061,40.4181481 23.5438474,38.473679 25.9543192,36.6572346 C29.4812911,33.9913086 30.6000376,28.2783951 31.7629648,23.1559012 L31.8101408,23.0602593 L33.5354366,14.8117037 C33.7353732,14.0074074 33.5354366,13.7046667 32.6855188,13.7046667 Z M35.1356784,3.24203704 L32.8862042,3.24203704 C32.0849601,3.24203704 31.7352582,3.54402469 31.5345728,4.34907407 L30.9841854,7.06545679 C30.8344202,7.86975309 31.0845282,8.12203704 31.8850235,8.12203704 L34.1352465,8.12203704 C34.9364906,8.12203704 35.2360211,7.86975309 35.3865352,7.06545679 L35.9369225,4.34907407 C36.1361103,3.54402469 35.9369225,3.24203704 35.1356784,3.24203704 Z M310.16385,16.2704321 C304.961754,16.2704321 302.510845,19.7911111 301.460242,24.7720247 L301.41007,25.123716 L306.663087,25.123716 C311.11411,25.123716 313.665362,24.1175926 314.414937,20.6466173 C315.016244,17.8300741 313.715533,16.2704321 310.16385,16.2704321 Z M318.167305,21.3002963 C317.017108,26.4310741 312.214136,27.9410123 306.1127,27.9410123 L300.860432,27.9410123 C300.110857,33.6245556 303.162324,35.1834444 307.262897,35.1834444 C310.113678,35.1834444 312.915038,34.4296049 314.565451,33.9762469 C315.315026,33.7759259 315.565883,33.9265432 315.415369,34.630679 L315.115838,36.0397037 C314.966073,36.6421728 314.765387,36.8937037 314.065984,37.1459877 C312.614758,37.6987531 309.413526,38.4028889 306.362808,38.4028889 C299.609892,38.4028889 295.15812,35.0328272 297.259326,25.123716 C298.810146,17.7291605 303.061981,13.2016049 310.214021,13.2016049 C316.4158,13.2016049 319.267331,16.1198148 318.167305,21.3002963 Z M294.510385,14.2077284 C293.459782,13.654963 291.359324,13.2016049 288.607387,13.2016049 C281.405176,13.2016049 276.353594,17.376716 274.752603,24.7720247 C272.852082,33.4731852 276.253251,38.4028889 284.455894,38.4028889 C287.308174,38.4028889 289.458803,37.7492099 290.208378,37.497679 C290.758016,37.2966049 290.908531,37.1459877 291.058296,36.4915556 L291.409495,34.7812963 C291.559261,33.9762469 291.309153,33.9762469 290.607502,34.1276173 C289.757585,34.2782346 287.506613,34.9326667 284.956859,34.9326667 C279.855854,34.9326667 277.554711,31.8133827 278.904096,25.576321 C280.104465,19.7414074 283.355869,16.3705926 288.4082,16.3705926 C289.507477,16.3705926 290.509406,16.521963 291.309153,16.723037 L290.459235,20.8476914 C290.308721,21.4012099 290.509406,21.7529012 291.108467,21.7529012 L292.858474,21.7529012 C293.459782,21.7529012 293.760061,21.5525802 293.909077,20.8476914 L295.059275,15.3147654 C295.209789,14.6603333 295.059275,14.4592593 294.510385,14.2077284 Z M268.952944,34.6803827 L268.302962,34.6803827 C266.701972,34.6803827 266.40319,34.4793086 266.902657,32.2667407 L268.852601,22.8599383 C270.003547,17.5777901 269.203052,13.3025185 263.350974,13.3025185 C260.050897,13.3025185 257.499646,14.9118642 255.649296,16.7727407 L255.998249,15.1136914 C256.248357,14.0074074 256.097843,13.7046667 254.947646,13.7046667 L249.896812,13.7046667 C249.19666,13.7046667 248.89638,13.9561975 248.745866,14.5601728 L248.445587,16.1702716 C248.29657,16.7727407 248.595352,16.9745679 249.19666,16.9745679 L251.796585,16.9745679 L247.595669,36.844 C247.445155,37.6987531 247.746183,37.950284 248.495758,37.950284 L250.297434,37.950284 C251.047009,37.950284 251.39746,37.6987531 251.546477,36.844 L255.09816,20.1940123 C256.749322,18.1313086 258.950122,16.6228765 261.600218,16.6228765 C264.801451,16.6228765 265.751711,18.9868148 265.002136,22.5579506 L262.801336,32.9701235 C261.901246,37.0450741 262.751164,37.950284 266.302847,37.950284 L268.302962,37.950284 C269.053286,37.950284 269.303394,37.6987531 269.453908,36.7935432 L269.702519,35.5863457 C269.903204,34.8317531 269.604423,34.6803827 268.952944,34.6803827 Z M236.043526,16.2704321 C230.84143,16.2704321 228.390521,19.7911111 227.339918,24.7720247 L227.289746,25.123716 L232.542763,25.123716 C236.993038,25.123716 239.545038,24.1175926 240.294613,20.6466173 C240.89592,17.8300741 239.59446,16.2704321 236.043526,16.2704321 Z M244.046981,21.3002963 C242.896035,26.4310741 238.093812,27.9410123 231.992376,27.9410123 L226.740108,27.9410123 C225.990533,33.6245556 229.041251,35.1834444 233.142573,35.1834444 C235.993354,35.1834444 238.795462,34.4296049 240.445127,33.9762469 C241.194702,33.7759259 241.445559,33.9265432 241.295045,34.630679 L240.996263,36.0397037 C240.845749,36.6421728 240.645063,36.8937037 239.94566,37.1459877 C238.494434,37.6987531 235.293202,38.4028889 232.242484,38.4028889 C225.489568,38.4028889 221.037796,35.0328272 223.138254,25.123716 C224.689822,17.7291605 228.940908,13.2016049 236.093697,13.2016049 C242.294728,13.2016049 245.147007,16.1198148 244.046981,21.3002963 Z M208.335455,16.4715062 C203.182033,16.4715062 200.932559,21.149679 200.030972,25.4249506 C199.181054,29.4999012 199.181054,35.1337407 204.282808,35.1337407 C207.433869,35.1337407 210.885209,32.869963 212.4862,25.2750864 L212.586542,24.7215679 C213.286695,20.9990617 213.386289,16.4715062 208.335455,16.4715062 Z M221.388246,1.83376543 L214.436892,34.6803827 L217.187331,34.6803827 C217.737718,34.6803827 218.038746,34.8822099 217.938404,35.4861852 L217.587953,37.0955309 C217.48761,37.6987531 217.236754,37.950284 216.53735,37.950284 L212.586542,37.950284 C210.684523,37.950284 210.385742,37.8493704 210.385742,34.8822099 C208.184941,37.497679 205.734033,38.4028889 203.282376,38.4028889 C195.480354,38.4028889 194.628939,31.0083333 195.979822,24.9218889 C197.180939,19.389716 200.632279,13.2016049 207.884662,13.2016049 C210.536256,13.2016049 212.935495,14.0571111 214.386721,16.3705926 L216.988143,3.99662963 L214.186035,3.99662963 C213.586974,3.99662963 213.286695,3.79555556 213.386289,3.19158025 L213.737488,1.58223457 C213.885756,0.978259259 214.186035,0.726728395 214.887685,0.726728395 L220.5885,0.726728395 C221.438418,0.726728395 221.588932,1.02871605 221.388246,1.83376543 Z M190.079819,34.6803827 L189.430587,34.6803827 C187.829596,34.6803827 187.530066,34.4793086 188.029533,32.2667407 L189.980225,22.8599383 C191.130423,17.5777901 190.330676,13.3025185 184.47785,13.3025185 C181.177772,13.3025185 178.626521,14.9118642 176.776171,16.7727407 L177.125873,15.1136914 C177.375981,14.0074074 177.225467,13.7046667 176.07527,13.7046667 L171.023688,13.7046667 C170.324284,13.7046667 170.023256,13.9561975 169.873491,14.5601728 L169.572462,16.1702716 C169.424195,16.7727407 169.722977,16.9745679 170.324284,16.9745679 L172.924209,16.9745679 L168.722545,36.844 C168.572779,37.6987531 168.873059,37.950284 169.622634,37.950284 L171.42431,37.950284 C172.173885,37.950284 172.525085,37.6987531 172.673352,36.844 L176.225035,20.1940123 C177.876946,18.1313086 180.077746,16.6228765 182.727843,16.6228765 C185.929075,16.6228765 186.878587,18.9868148 186.129012,22.5579506 L183.928211,32.9701235 C183.028122,37.0450741 183.87804,37.950284 187.429723,37.950284 L189.430587,37.950284 C190.180162,37.950284 190.431019,37.6987531 190.580784,36.7935432 L190.830143,35.5863457 C191.03008,34.8317531 190.731298,34.6803827 190.079819,34.6803827 Z M157.170401,16.2704321 C151.969054,16.2704321 149.518146,19.7911111 148.468291,24.7720247 L148.41812,25.123716 L153.669638,25.123716 C158.121411,25.123716 160.671913,24.1175926 161.421488,20.6466173 C162.022796,17.8300741 160.722085,16.2704321 157.170401,16.2704321 Z M165.173857,21.3002963 C164.02366,26.4310741 159.221437,27.9410123 153.119251,27.9410123 L147.867732,27.9410123 C147.117408,33.6245556 150.168876,35.1834444 154.270197,35.1834444 C157.120979,35.1834444 159.921589,34.4296049 161.572002,33.9762469 C162.322326,33.7759259 162.572434,33.9265432 162.42192,34.630679 L162.123138,36.0397037 C161.972624,36.6421728 161.772688,36.8937037 161.072535,37.1459877 C159.622059,37.6987531 156.420826,38.4028889 153.369359,38.4028889 C146.617192,38.4028889 142.166169,35.0328272 144.266627,25.123716 C145.817446,17.7291605 150.068533,13.2016049 157.220573,13.2016049 C163.422352,13.2016049 166.274631,16.1198148 165.173857,21.3002963 Z M131.513366,16.4715062 C127.563308,16.4715062 125.012056,19.4394198 123.711345,25.123716 L123.461237,26.1290864 C122.111103,33.323321 124.912462,35.1337407 127.712324,35.1337407 C132.514547,35.1337407 135.015627,30.204037 136.016059,25.576321 C136.915399,21.3002963 136.66604,16.4715062 131.513366,16.4715062 Z M140.06646,25.8775556 C138.666904,32.4678148 134.714599,38.4028889 128.063523,38.4028889 C124.661606,38.4028889 122.560399,36.7430864 121.761401,34.2782346 L119.660195,44.1873457 L123.411815,44.1873457 C124.111218,44.1873457 124.311904,44.4396296 124.211561,45.0436049 L123.861859,46.6024938 C123.711345,47.205716 123.311472,47.4572469 122.710913,47.4572469 L112.307469,47.4572469 C111.706911,47.4572469 111.406631,47.205716 111.557146,46.6024938 L111.906847,45.0436049 C112.00719,44.4396296 112.307469,44.1873457 112.907279,44.1873457 L115.708638,44.1873457 L121.460373,16.9745679 L118.659014,16.9745679 C118.059953,16.9745679 117.758925,16.7727407 117.909439,16.1702716 L118.208969,14.5601728 C118.359484,13.9561975 118.659014,13.7046667 119.359915,13.7046667 L124.611434,13.7046667 C125.71146,13.7046667 125.912146,13.9561975 125.661289,15.0632346 L125.462101,16.1198148 L125.611866,16.1198148 L125.41193,17.0754815 C127.112514,14.8117037 129.46308,13.2016049 133.014763,13.2016049 C140.41766,13.2016049 141.317749,19.8920247 140.06646,25.8775556 Z M96.8030211,25.123716 L102.055289,25.123716 C106.506312,25.123716 109.057563,24.1175926 109.807887,20.6466173 C110.407697,17.8300741 109.107735,16.2704321 105.555303,16.2704321 C100.353955,16.2704321 97.9037958,19.7911111 96.8531925,24.7720247 L96.8030211,25.123716 Z M96.2533826,27.9410123 C95.5023099,33.6245556 98.553777,35.1834444 102.655099,35.1834444 C105.50588,35.1834444 108.306491,34.4296049 109.957653,33.9762469 C110.707977,33.7759259 110.958085,33.9265432 110.808319,34.630679 L110.50804,36.0397037 C110.357526,36.6421728 110.157589,36.8937037 109.457437,37.1459877 C108.00696,37.6987531 104.805728,38.4028889 101.755009,38.4028889 C95.0020939,38.4028889 90.5510704,35.0328272 92.6515282,25.123716 C94.2023474,17.7291605 98.4541831,13.2016049 105.606223,13.2016049 C111.808002,13.2016049 114.658784,16.1198148 113.558758,21.3002963 C112.408561,26.4310741 107.607087,27.9410123 101.504901,27.9410123 L96.2533826,27.9410123 Z M77.8472324,16.4715062 C72.6960563,16.4715062 70.4450845,21.149679 69.5449953,25.4249506 C68.6943286,29.4999012 68.6943286,35.1337407 73.796831,35.1337407 C76.947892,35.1337407 80.3992324,32.869963 81.9994742,25.2750864 L82.0990681,24.7215679 C82.7999695,20.9990617 82.9003122,16.4715062 77.8472324,16.4715062 Z M90.9030188,1.83376543 L83.9501667,34.6803827 L86.7013545,34.6803827 C87.2517418,34.6803827 87.5512723,34.8822099 87.4509296,35.4861852 L87.1012277,37.0955309 C87.000885,37.6987531 86.7515258,37.950284 86.0513732,37.950284 L82.0990681,37.950284 C80.1992958,37.950284 79.8982676,37.8493704 79.8982676,34.8822099 C77.698216,37.497679 75.2465587,38.4028889 72.7963991,38.4028889 C64.9928803,38.4028889 64.1429624,31.0083333 65.4930962,24.9218889 C66.6942136,19.389716 70.145554,13.2016049 77.3979366,13.2016049 C80.0487817,13.2016049 82.4495188,14.0571111 83.8999953,16.3705926 L86.500669,3.99662963 L83.6993099,3.99662963 C83.0995,3.99662963 82.7999695,3.79555556 82.9003122,3.19158025 L83.2500141,1.58223457 C83.3997793,0.978259259 83.6993099,0.726728395 84.4002113,0.726728395 L90.1017746,0.726728395 C90.9524413,0.726728395 91.1022066,1.02871605 90.9030188,1.83376543 Z M60.3441667,35.5863457 L60.0940587,36.7935432 C59.9442934,37.6987531 59.6934366,37.950284 58.9438615,37.950284 L56.9429977,37.950284 C53.3913146,37.950284 52.5413967,37.0450741 53.4414859,32.9701235 L55.6430352,22.5579506 C56.3926103,18.9868148 55.4423498,16.6228765 52.2411174,16.6228765 C49.5902723,16.6228765 47.3894718,18.1313086 45.7390587,20.1940123 L42.1873756,36.844 C42.0376103,37.6987531 41.6879085,37.950284 40.9368357,37.950284 L39.1366573,37.950284 C38.3863333,37.950284 38.0868028,37.6987531 38.2365681,36.844 L42.4374836,16.9745679 L39.8368099,16.9745679 C39.2362512,16.9745679 38.9367207,16.7727407 39.0864859,16.1702716 L39.3867653,14.5601728 C39.5365305,13.9561975 39.8368099,13.7046667 40.5369624,13.7046667 L45.5892934,13.7046667 C46.7394906,13.7046667 46.8892559,14.0074074 46.6398967,15.1136914 L46.2886972,16.7727407 C48.1397958,14.9118642 50.6902981,13.3025185 53.9918732,13.3025185 C59.8439507,13.3025185 60.6436972,17.5777901 59.4942488,22.8599383 L57.5428075,32.2667407 C57.0425915,34.4793086 57.3436197,34.6803827 58.9438615,34.6803827 L59.5938427,34.6803827 C60.2438239,34.6803827 60.5441033,34.8317531 60.3441667,35.5863457 Z" id="Fill-3" fill="#196980"></path>
                        </g>
                    </g>
                </g>
            </g>
        </g>
    </g>
</svg>